<svg width="18" height="16" viewBox="0 0 18 16" fill="none" xmlns="http://www.w3.org/2000/svg">
<path d="M6.51621 0.0322266C5.93965 0.0990229 5.51426 0.313476 5.0748 0.752929C4.54746 1.27676 4.31543 1.83223 4.31543 2.56348C4.31543 3.14004 4.44902 3.56191 4.77949 4.04004C4.8498 4.14551 5.83066 5.15098 6.95215 6.27246L8.99473 8.31152L11.0373 6.27246C12.1588 5.15098 13.1396 4.14551 13.21 4.04004C13.5404 3.56191 13.674 3.14004 13.674 2.56348C13.674 1.83223 13.442 1.27676 12.9146 0.752929C12.4611 0.295898 12.0639 0.106054 11.4381 0.0322266C10.7068 -0.0556641 9.87715 0.257226 9.16348 0.883008L8.99473 1.02715L8.82949 0.883008C8.52715 0.619336 8.05957 0.324023 7.76074 0.208008C7.5041 0.10957 6.93457 -0.00996113 6.77988 0.000585556C6.75176 0.0041008 6.63223 0.0181637 6.51621 0.0322266ZM7.46191 0.809179C7.80645 0.925195 8.05957 1.10449 8.54121 1.57207L8.99473 2.01152L9.44473 1.57559C10.06 0.970898 10.4115 0.774023 10.9635 0.717773C11.4873 0.665039 12.0955 0.879492 12.4611 1.25215C12.8479 1.6459 13.0588 2.27871 12.9779 2.79902C12.9322 3.09082 12.8232 3.38262 12.6861 3.58652C12.6299 3.6709 11.7756 4.54629 10.7877 5.53418L8.99473 7.32715L7.14902 5.48145C5.34902 3.67793 5.30332 3.62871 5.18027 3.36504C4.92715 2.81309 4.93066 2.2752 5.19785 1.73379C5.3877 1.34707 5.63379 1.10098 6.01348 0.914648C6.1752 0.833789 6.39316 0.756445 6.49863 0.738867C6.76934 0.689648 7.20527 0.724804 7.46191 0.809179Z" fill="#000"/>
<path d="M0.891622 0.745898C0.7967 0.774023 0.666622 0.819726 0.606857 0.847851C0.434591 0.942773 0.20256 1.1959 0.104122 1.40332L0.0127162 1.59668L0.0021693 5.21777C-0.00486195 7.43613 0.00568492 8.92324 0.0267787 9.06035C0.0443568 9.17988 0.114669 9.39434 0.177951 9.53496C0.286935 9.77402 0.378341 9.87598 1.77756 11.2928C2.84279 12.3721 3.28225 12.8432 3.34201 12.9627C3.41936 13.1209 3.42287 13.1666 3.44045 14.1826L3.45803 15.2373H5.53225H7.60647V13.1631C7.60647 10.9939 7.60295 10.9518 7.44826 10.5299C7.27248 10.0693 7.12834 9.91113 5.35295 8.25527C3.07834 6.14238 3.18381 6.23379 2.97287 6.15644L2.79006 6.08613L2.57209 3.93105C2.45256 2.74629 2.34709 1.71973 2.33303 1.65293C2.29436 1.44902 2.13615 1.16074 1.9885 1.02715C1.6967 0.766992 1.25725 0.654491 0.891622 0.745898ZM1.40139 1.4666C1.64397 1.58613 1.64045 1.56855 1.86193 3.77285C1.97443 4.87676 2.07287 5.86465 2.08342 5.96309L2.10451 6.14941L1.95686 6.24082C1.75295 6.3709 1.61936 6.52207 1.51389 6.74707C1.34865 7.10215 1.4049 7.58379 1.64748 7.9002C1.68967 7.95293 2.33303 8.55059 3.08186 9.23262L4.4424 10.4666L4.54084 10.3752C4.59709 10.3225 4.70256 10.2064 4.7799 10.1186L4.9135 9.95684L3.54592 8.71582C2.09748 7.40449 2.06936 7.37637 2.11858 7.11621C2.1467 6.96855 2.31193 6.7998 2.45256 6.77168C2.51233 6.75762 2.61779 6.76816 2.68459 6.79277C2.86389 6.85254 6.46389 10.21 6.62912 10.4666C6.69592 10.5721 6.78381 10.7443 6.826 10.8533C6.89983 11.0467 6.90334 11.1135 6.91389 12.8045L6.92443 14.5518H5.53576H4.15061L4.13654 13.7854C4.12248 12.9521 4.09436 12.8291 3.86936 12.4881C3.81662 12.4072 3.12053 11.676 2.32248 10.8639C1.15529 9.67559 0.856466 9.35215 0.786154 9.20098L0.698263 9.01465V5.38301C0.698263 1.37519 0.6842 1.61426 0.919747 1.47363C1.06037 1.38574 1.23967 1.38574 1.40139 1.4666Z" fill="#000"/>
<path d="M16.515 0.749413C16.3182 0.802148 16.0756 0.942773 15.949 1.07637C15.833 1.19941 15.6889 1.48418 15.6572 1.65293C15.6432 1.71973 15.5377 2.74629 15.4182 3.93105L15.2002 6.08613L15.0174 6.15644C14.8064 6.23379 14.9119 6.14238 12.6373 8.25527C10.8619 9.91113 10.7178 10.0693 10.542 10.5299C10.3873 10.9518 10.3838 10.9939 10.3838 13.1631V15.2373H12.458H14.5322L14.5498 14.1826C14.5674 13.1736 14.5709 13.1209 14.6482 12.9662C14.7045 12.8502 15.165 12.358 16.2127 11.2963C17.6084 9.87598 17.7033 9.77402 17.8123 9.53496C17.8756 9.39434 17.9459 9.17988 17.9635 9.06035C17.9846 8.92324 17.9951 7.43613 17.9881 5.21777L17.9775 1.59668L17.8861 1.40332C17.7842 1.18535 17.5521 0.935741 17.3658 0.840819C17.2252 0.770507 16.9158 0.700194 16.7717 0.703711C16.7189 0.703711 16.6029 0.724804 16.515 0.749413ZM17.0494 1.45605C17.1057 1.48769 17.1865 1.56152 17.2217 1.6248C17.2885 1.73379 17.292 1.82871 17.292 5.37598V9.01465L17.2041 9.20098C17.1338 9.35215 16.835 9.67559 15.6678 10.8639C14.8697 11.676 14.1736 12.4072 14.1209 12.4881C13.8959 12.8291 13.8678 12.9521 13.8537 13.7854L13.8396 14.5518H12.4545H11.0658L11.0764 12.801C11.0869 11.1275 11.0904 11.0467 11.1607 10.8604C11.3189 10.4455 11.4033 10.3541 13.1717 8.70879C15.4217 6.60996 15.2213 6.78223 15.4146 6.78223C15.6221 6.78223 15.7557 6.85605 15.8295 7.00723C15.9807 7.32363 15.9736 7.33418 14.4443 8.71934L13.0768 9.95684L13.1787 10.0834C13.2314 10.1537 13.3404 10.2697 13.4143 10.34L13.5478 10.4666L14.9014 9.23965C15.6467 8.56465 16.29 7.96348 16.3357 7.90723C16.5853 7.5873 16.6451 7.10566 16.4764 6.74707C16.3779 6.53613 16.2232 6.36035 16.0158 6.23027C15.8857 6.14941 15.8857 6.1459 15.9068 5.96309C15.9174 5.86465 16.0158 4.87676 16.1283 3.77285C16.3498 1.56855 16.3463 1.58613 16.5889 1.4666C16.74 1.38926 16.9123 1.38574 17.0494 1.45605Z" fill="#000"/>
</svg>
