<svg width="42" height="42" viewBox="0 0 42 42" fill="none" xmlns="http://www.w3.org/2000/svg">
<path d="M42 21C42 32.598 32.598 42 21 42C9.40202 42 0 32.598 0 21C0 9.40202 9.40202 0 21 0C32.598 0 42 9.40202 42 21Z" fill="white"/>
<path fill-rule="evenodd" clip-rule="evenodd" d="M21.476 6.34549C21.3263 5.88484 20.6746 5.88484 20.5249 6.34549L19.8461 8.43487C19.7791 8.64088 19.5871 8.78036 19.3705 8.78036H17.1736C16.6893 8.78036 16.4879 9.40017 16.8797 9.68487L18.6571 10.9762C18.8323 11.1035 18.9056 11.3292 18.8387 11.5352L18.1598 13.6246C18.0102 14.0852 18.5374 14.4683 18.9292 14.1836L20.7066 12.8923C20.8818 12.765 21.1191 12.765 21.2944 12.8923L23.0717 14.1836C23.4635 14.4683 23.9908 14.0852 23.8411 13.6246L23.1622 11.5352C23.0953 11.3292 23.1686 11.1035 23.3439 10.9762L25.1212 9.68487C25.5131 9.40017 25.3117 8.78036 24.8273 8.78036H22.6304C22.4138 8.78036 22.2218 8.64088 22.1549 8.43487L21.476 6.34549ZM18.7014 18.4632C18.7014 17.1938 19.7305 16.1647 21 16.1647C22.2694 16.1647 23.2985 17.1938 23.2985 18.4632V30.0254C23.2985 31.2949 22.2694 32.324 21 32.324C19.7305 32.324 18.7014 31.2949 18.7014 30.0254V18.4632ZM12.8507 22.6434C12.8507 21.374 13.8798 20.3449 15.1492 20.3449C16.4187 20.3449 17.4477 21.374 17.4477 22.6434V30.0265C17.4477 31.2959 16.4187 32.325 15.1492 32.325C13.8798 32.325 12.8507 31.2959 12.8507 30.0265V22.6434ZM9.29851 22.9921C8.02908 22.9921 7 24.0212 7 25.2906V30.027C7 31.2964 8.02908 32.3255 9.29851 32.3255C10.5679 32.3255 11.597 31.2964 11.597 30.027V25.2906C11.597 24.0212 10.5679 22.9921 9.29851 22.9921ZM32.7014 22.9921C31.432 22.9921 30.4029 24.0212 30.4029 25.2906V30.027C30.4029 31.2964 31.432 32.3255 32.7014 32.3255C33.9708 32.3255 34.9999 31.2964 34.9999 30.027V25.2906C34.9999 24.0212 33.9708 22.9921 32.7014 22.9921ZM26.8507 20.3449C25.5812 20.3449 24.5522 21.374 24.5522 22.6434V30.0265C24.5522 31.2959 25.5812 32.325 26.8507 32.325C28.1201 32.325 29.1492 31.2959 29.1492 30.0265V22.6434C29.1492 21.374 28.1201 20.3449 26.8507 20.3449Z" fill="#569345"/>
</svg>
