<svg width="32" height="25" viewBox="0 0 32 25" fill="none" xmlns="http://www.w3.org/2000/svg">
<path d="M15.9004 1.32807C15.5775 1.07421 15.1258 0.948915 14.6717 0.987267C14.2176 1.02562 13.81 1.2235 13.5631 1.52549L7.21529 9.28786H3.51052C1.843 9.28786 0.491211 10.3505 0.491211 11.6614V22.3423C0.491211 23.6532 1.843 24.7159 3.51052 24.7159L8.03949 24.7159C8.04049 24.7159 8.04148 24.7159 8.04247 24.7159H21.3945C24.8848 24.7159 27.9199 22.8348 28.7344 20.1668L31.2586 11.8989C31.9421 9.66008 29.7835 7.50771 26.8547 7.50771H18.6071V4.43898C18.6071 3.80947 18.289 3.20576 17.7228 2.76063L15.9004 1.32807ZM9.54915 22.3423V10.8232L15.0899 4.04762L15.5878 4.43898V8.69448C15.5878 9.34991 16.2637 9.88125 17.0974 9.88125H26.8547C27.8309 9.88125 28.5505 10.5987 28.3226 11.345L25.7985 19.6129C25.3097 21.2137 23.4887 22.3423 21.3945 22.3423H9.54915ZM6.52984 22.3423H3.51052V11.6614H6.52984V22.3423Z" fill="white"/>
</svg>
