<svg width="23" height="20" viewBox="0 0 23 20" fill="none" xmlns="http://www.w3.org/2000/svg">
<path d="M9 2C5.13401 2 2 5.13401 2 9C2 11.002 2.83911 12.8063 4.18762 14.0834C4.58862 14.4632 4.60583 15.0961 4.22607 15.4971C3.84631 15.8981 3.21338 15.9153 2.81238 15.5356C1.08166 13.8965 0 11.5737 0 9C0 4.02944 4.02944 0 9 0C12.9197 0 16.2521 2.5049 17.4876 6.00002L17.5 6C20.5376 6 23 8.46243 23 11.5C23 13.8963 21.4681 15.9322 19.3332 16.6868C18.8125 16.8708 18.2412 16.5979 18.0572 16.0772C17.8731 15.5565 18.146 14.9851 18.6668 14.8011C20.0275 14.3201 21 13.0224 21 11.5C21 9.567 19.433 8 17.5 8C17.3678 8 17.2376 8.00729 17.1099 8.02141C16.9915 8.03449 16.8758 8.02636 16.7663 8.00006C16.3135 8.00875 15.8973 7.70694 15.7795 7.24926C15.0024 4.2299 12.2603 2 9 2ZM12 12.4142V19C12 19.5523 11.5523 20 11 20C10.4477 20 10 19.5523 10 19V12.4142L8.20711 14.2071C7.81658 14.5976 7.18342 14.5976 6.79289 14.2071C6.40237 13.8166 6.40237 13.1834 6.79289 12.7929L10.2929 9.29289C10.6834 8.90237 11.3166 8.90237 11.7071 9.29289L15.2071 12.7929C15.5976 13.1834 15.5976 13.8166 15.2071 14.2071C14.8166 14.5976 14.1834 14.5976 13.7929 14.2071L12 12.4142Z" fill="black"/>
</svg>
